<svg width="26" height="27" viewBox="0 0 26 27" fill="none" xmlns="http://www.w3.org/2000/svg">
<path d="M3.875 0.5C3.0462 0.5 2.25134 0.82924 1.66529 1.41529C1.07924 2.00134 0.75 2.7962 0.75 3.625V22.375C0.75 23.2038 1.07924 23.9987 1.66529 24.5847C2.25134 25.1708 3.0462 25.5 3.875 25.5H13.0125C12.4766 24.9421 12.0229 24.3108 11.665 23.625H3.875C3.54348 23.625 3.22554 23.4933 2.99112 23.2589C2.7567 23.0245 2.625 22.7065 2.625 22.375H11.1412C10.9451 21.7667 10.8218 21.1373 10.7738 20.5H2.625V3.625C2.625 3.29348 2.7567 2.97554 2.99112 2.74112C3.22554 2.5067 3.54348 2.375 3.875 2.375H18.25C18.5815 2.375 18.8995 2.5067 19.1339 2.74112C19.3683 2.97554 19.5 3.29348 19.5 3.625V11.7738C20.15 11.8238 20.7775 11.9487 21.375 12.1412V3.625C21.375 2.7962 21.0458 2.00134 20.4597 1.41529C19.8737 0.82924 19.0788 0.5 18.25 0.5H3.875ZM25.75 19.875C25.75 18.0516 25.0257 16.303 23.7364 15.0136C22.447 13.7243 20.6984 13 18.875 13C17.0516 13 15.303 13.7243 14.0136 15.0136C12.7243 16.303 12 18.0516 12 19.875C12 21.6984 12.7243 23.447 14.0136 24.7364C15.303 26.0257 17.0516 26.75 18.875 26.75C20.6984 26.75 22.447 26.0257 23.7364 24.7364C25.0257 23.447 25.75 21.6984 25.75 19.875ZM18.1425 16.8713L21.65 19.1712C21.7587 19.241 21.8478 19.3373 21.9091 19.451C21.9703 19.5647 22.0016 19.6921 22 19.8213C22.0001 19.9512 21.9693 20.0793 21.91 20.195C21.854 20.3095 21.7686 20.407 21.6625 20.4775L18.1538 22.8713C18.0927 22.9123 18.0262 22.9447 17.9562 22.9675C17.7938 23.0194 17.6178 23.0091 17.4625 22.9388C17.373 22.8968 17.2913 22.8397 17.2213 22.77C17.1536 22.6963 17.0986 22.6118 17.0588 22.52C17.0197 22.4261 16.9997 22.3254 17 22.2237V17.5263C16.9994 17.3758 17.0423 17.2285 17.1238 17.102C17.2052 16.9755 17.3216 16.8754 17.4588 16.8137C17.5677 16.7627 17.6882 16.741 17.8081 16.7509C17.9281 16.7607 18.0433 16.8018 18.1425 16.87V16.8713ZM4.5 5.5C4.5 5.16848 4.6317 4.85054 4.86612 4.61612C5.10054 4.3817 5.41848 4.25 5.75 4.25H15.75C16.0815 4.25 16.3995 4.3817 16.6339 4.61612C16.8683 4.85054 17 5.16848 17 5.5V8C17 8.33152 16.8683 8.64946 16.6339 8.88388C16.3995 9.1183 16.0815 9.25 15.75 9.25H5.75C5.41848 9.25 5.10054 9.1183 4.86612 8.88388C4.6317 8.64946 4.5 8.33152 4.5 8V5.5ZM6.375 7.375H15.125V6.125H6.375V7.375Z" fill="#4777E1"/>
</svg>
