<svg xmlns="http://www.w3.org/2000/svg" width="18" height="17" viewBox="0 0 18 17" fill="none" class="injected-svg menu-icon" data-src="/src/assets/Cart.svg" xmlns:xlink="http://www.w3.org/1999/xlink" role="img">
<path d="M14.1705 13.5C14.6125 13.5 15.0364 13.6756 15.349 13.9882C15.6616 14.3007 15.8372 14.7247 15.8372 15.1667C15.8372 15.6087 15.6616 16.0326 15.349 16.3452C15.0364 16.6578 14.6125 16.8334 14.1705 16.8334C13.7285 16.8334 13.3045 16.6578 12.992 16.3452C12.6794 16.0326 12.5038 15.6087 12.5038 15.1667C12.5038 14.2417 13.2455 13.5 14.1705 13.5ZM0.837158 0.166687H3.56216L4.34549 1.83335H16.6705C16.8915 1.83335 17.1035 1.92115 17.2597 2.07743C17.416 2.23371 17.5038 2.44567 17.5038 2.66669C17.5038 2.80835 17.4622 2.95002 17.4038 3.08335L14.4205 8.47502C14.1372 8.98335 13.5872 9.33335 12.9622 9.33335H6.75383L6.00382 10.6917L5.97882 10.7917C5.97882 10.8469 6.00077 10.8999 6.03984 10.939C6.07891 10.9781 6.1319 11 6.18716 11H15.8372V12.6667H5.83716C5.39513 12.6667 4.97121 12.4911 4.65865 12.1785C4.34609 11.866 4.17049 11.442 4.17049 11C4.17049 10.7084 4.24549 10.4334 4.37049 10.2L5.50382 8.15835L2.50382 1.83335H0.837158V0.166687ZM5.83716 13.5C6.27919 13.5 6.70311 13.6756 7.01567 13.9882C7.32823 14.3007 7.50382 14.7247 7.50382 15.1667C7.50382 15.6087 7.32823 16.0326 7.01567 16.3452C6.70311 16.6578 6.27919 16.8334 5.83716 16.8334C5.39513 16.8334 4.97121 16.6578 4.65865 16.3452C4.34609 16.0326 4.17049 15.6087 4.17049 15.1667C4.17049 14.2417 4.91216 13.5 5.83716 13.5ZM13.3372 7.66669L15.6538 3.50002H5.12049L7.08716 7.66669H13.3372Z" fill="#4777E1"></path>
</svg>