<svg xmlns="http://www.w3.org/2000/svg" width="21" height="21" viewBox="0 0 21 21" fill="none" class="injected-svg menu-icon" data-src="/src/assets/List.svg" xmlns:xlink="http://www.w3.org/1999/xlink" role="img">
<path d="M6.67139 10.6666H12.5047M6.67139 14H10.3214M8.33805 5.49996H11.6714C13.3381 5.49996 13.3381 4.66663 13.3381 3.83329C13.3381 2.16663 12.5047 2.16663 11.6714 2.16663H8.33805C7.50472 2.16663 6.67139 2.16663 6.67139 3.83329C6.67139 5.49996 7.50472 5.49996 8.33805 5.49996Z" stroke="#4777E1" stroke-width="1.5" stroke-miterlimit="10" stroke-linecap="round" stroke-linejoin="round"></path>
<path d="M13.3372 3.84998C16.1122 3.99998 17.5039 5.02498 17.5039 8.83331V13.8333C17.5039 17.1666 16.6706 18.8333 12.5039 18.8333H7.50391C3.33724 18.8333 2.50391 17.1666 2.50391 13.8333V8.83331C2.50391 5.03331 3.89557 3.99998 6.67057 3.84998" stroke="#4777E1" stroke-width="1.5" stroke-miterlimit="10" stroke-linecap="round" stroke-linejoin="round"></path>
</svg>