<svg width="30" height="29" viewBox="0 0 30 29" fill="none" xmlns="http://www.w3.org/2000/svg">
<path d="M28.0273 0.736321C27.1589 0.0566333 26.1204 -0.151049 24.9121 0.113274L12.8477 3.62499C12.0547 3.77603 11.4128 4.18196 10.9219 4.84277C10.431 5.50357 10.1855 6.26822 10.1855 7.13671V20.4473C9.20378 19.692 7.99544 19.3144 6.56055 19.3144C4.86133 19.3144 3.42643 19.7959 2.25586 20.7588C1.08529 21.7217 0.5 22.8639 0.5 24.1855C0.5 25.5072 1.08529 26.64 2.25586 27.584C3.42643 28.528 4.86133 29 6.56055 29C8.22201 29 9.63802 28.4902 10.8086 27.4707C11.9792 26.4512 12.5645 25.2617 12.5645 23.9023V23.8457C12.5267 23.8079 12.4889 23.5059 12.4512 22.9394H12.5645V12.0644C12.5645 11.5736 12.8477 11.1771 13.4141 10.875L25.5352 7.36327C25.8372 7.24999 26.196 7.32551 26.6113 7.58984C26.9134 7.85416 27.0645 8.17512 27.0645 8.55273V16.6523C25.9694 16.0104 24.7611 15.6894 23.4395 15.6894C21.778 15.6894 20.362 16.1709 19.1914 17.1338C18.0208 18.0967 17.4355 19.2389 17.4355 20.5605C17.4355 21.8822 18.0208 23.015 19.1914 23.959C20.362 24.903 21.778 25.375 23.4395 25.375C25.1387 25.375 26.5736 24.903 27.7441 23.959C28.9147 23.015 29.5 21.8822 29.5 20.5605C29.5 20.2585 29.4245 19.8431 29.2734 19.3144H29.5V3.62499C29.5 2.45442 29.0091 1.49153 28.0273 0.736321ZM6.56055 26.5644C5.57878 26.5644 4.72917 26.3284 4.01172 25.8564C3.29427 25.3844 2.93555 24.8275 2.93555 24.1855C2.93555 23.5059 3.29427 22.93 4.01172 22.458C4.72917 21.986 5.57878 21.75 6.56055 21.75C7.54232 21.75 8.39193 21.986 9.10938 22.458C9.82682 22.93 10.1855 23.5059 10.1855 24.1855C10.1855 24.8275 9.82682 25.3844 9.10938 25.8564C8.39193 26.3284 7.54232 26.5644 6.56055 26.5644ZM23.4395 22.9394C22.4577 22.9394 21.6081 22.7034 20.8906 22.2314C20.1732 21.7594 19.8145 21.2025 19.8145 20.5605C19.8145 19.8809 20.1732 19.305 20.8906 18.833C21.6081 18.361 22.4577 18.125 23.4395 18.125C24.4212 18.125 25.2708 18.361 25.9883 18.833C26.7057 19.305 27.0645 19.8809 27.0645 20.5605C27.0645 21.2025 26.7057 21.7594 25.9883 22.2314C25.2708 22.7034 24.4212 22.9394 23.4395 22.9394ZM24.9121 5.21093L12.8477 8.72265C12.7344 8.72265 12.64 8.76041 12.5645 8.83593V7.13671C12.5645 6.60807 12.8477 6.21158 13.4141 5.94726L25.5352 2.43554C26.1016 2.43554 26.4603 2.51106 26.6113 2.6621C26.9134 2.8509 27.0645 3.17187 27.0645 3.62499V5.21093C26.3848 4.90885 25.6673 4.90885 24.9121 5.21093Z" fill="#4777E1"/>
</svg>
