<svg width="28" height="28" viewBox="0 0 28 28" fill="none" xmlns="http://www.w3.org/2000/svg">
<path d="M1.74536 13.7059C1.74536 7.92893 1.74536 5.04045 3.53948 3.24511C5.33605 1.45099 8.2233 1.45099 14.0003 1.45099C19.7772 1.45099 22.6657 1.45099 24.4598 3.24511C26.2552 5.04168 26.2552 7.92893 26.2552 13.7059C26.2552 19.4829 26.2552 22.3713 24.4598 24.1654C22.6669 25.9608 19.7772 25.9608 14.0003 25.9608C8.2233 25.9608 5.33482 25.9608 3.53948 24.1654C1.74536 22.3726 1.74536 19.4829 1.74536 13.7059Z" stroke="#4777E1" stroke-width="2.20588"/>
<path d="M13.0811 21.0588C13.0811 21.3026 13.1779 21.5363 13.3503 21.7087C13.5226 21.8811 13.7564 21.9779 14.0002 21.9779C14.2439 21.9779 14.4777 21.8811 14.6501 21.7087C14.8225 21.5363 14.9193 21.3026 14.9193 21.0588H13.0811ZM21.3531 8.8039L22.0026 9.45341C22.1747 9.28107 22.2714 9.04747 22.2714 8.8039C22.2714 8.56033 22.1747 8.32673 22.0026 8.15439L21.3531 8.8039ZM20.1644 6.31615C20.0802 6.22585 19.9788 6.15342 19.866 6.10319C19.7533 6.05295 19.6316 6.02594 19.5082 6.02376C19.3848 6.02159 19.2622 6.04429 19.1477 6.09051C19.0333 6.13674 18.9293 6.20555 18.842 6.29282C18.7548 6.3801 18.686 6.48406 18.6397 6.59851C18.5935 6.71296 18.5708 6.83554 18.573 6.95895C18.5752 7.08236 18.6022 7.20407 18.6524 7.31681C18.7026 7.42956 18.7751 7.53103 18.8654 7.61517L20.1644 6.31615ZM18.8654 9.99263C18.7751 10.0768 18.7026 10.1782 18.6524 10.291C18.6022 10.4037 18.5752 10.5254 18.573 10.6488C18.5708 10.7723 18.5935 10.8948 18.6397 11.0093C18.686 11.1237 18.7548 11.2277 18.842 11.315C18.9293 11.4023 19.0333 11.4711 19.1477 11.5173C19.2622 11.5635 19.3848 11.5862 19.5082 11.584C19.6316 11.5819 19.7533 11.5548 19.866 11.5046C19.9788 11.4544 20.0802 11.3819 20.1644 11.2916L18.8654 9.99263ZM14.9193 21.0588V13.7059H13.0811V21.0588H14.9193ZM18.9021 9.72302H21.3531V7.88478H18.9021V9.72302ZM22.0026 8.15439L20.1644 6.31615L18.8654 7.61517L20.7036 9.45341L22.0026 8.15439ZM20.7036 8.15439L18.8654 9.99263L20.1644 11.2916L22.0026 9.45341L20.7036 8.15439ZM14.9193 13.7059C14.9193 12.6495 15.3389 11.6365 16.0858 10.8896C16.8328 10.1426 17.8458 9.72302 18.9021 9.72302V7.88478C17.3583 7.88478 15.8777 8.49807 14.786 9.58974C13.6943 10.6814 13.0811 12.162 13.0811 13.7059H14.9193Z" fill="#4777E1"/>
<path d="M13.0811 21.0588C13.0811 21.3026 13.178 21.5364 13.3503 21.7088C13.5227 21.8811 13.7565 21.978 14.0003 21.978C14.244 21.978 14.4778 21.8811 14.6502 21.7088C14.8225 21.5364 14.9194 21.3026 14.9194 21.0588H13.0811ZM6.64731 8.80395L5.9978 8.15444C5.82568 8.32677 5.729 8.56038 5.729 8.80395C5.729 9.04751 5.82568 9.28112 5.9978 9.45345L6.64731 8.80395ZM9.13506 7.61522C9.29741 7.44099 9.3858 7.21054 9.3816 6.97242C9.3774 6.73431 9.28093 6.50712 9.11254 6.33872C8.94414 6.17032 8.71695 6.07386 8.47884 6.06966C8.24072 6.06546 8.01027 6.15385 7.83604 6.3162L9.13506 7.61522ZM7.83604 11.2917C7.92018 11.382 8.02165 11.4544 8.1344 11.5047C8.24714 11.5549 8.36885 11.5819 8.49226 11.5841C8.61567 11.5863 8.73826 11.5636 8.8527 11.5173C8.96715 11.4711 9.07111 11.4023 9.15839 11.315C9.24567 11.2277 9.31447 11.1238 9.3607 11.0093C9.40693 10.8949 9.42963 10.7723 9.42745 10.6489C9.42527 10.5255 9.39826 10.4038 9.34803 10.291C9.29779 10.1783 9.22536 10.0768 9.13506 9.99267L7.83604 11.2917ZM14.9194 21.0588V13.7059H13.0811V21.0588H14.9194ZM9.09829 7.88483H6.64731V9.72306H9.09829V7.88483ZM7.29682 9.45345L9.13506 7.61522L7.83604 6.3162L5.9978 8.15444L7.29682 9.45345ZM5.9978 9.45345L7.83604 11.2917L9.13506 9.99267L7.29682 8.15444L5.9978 9.45345ZM14.9194 13.7059C14.9194 12.1621 14.3061 10.6814 13.2144 9.58978C12.1228 8.49812 10.6421 7.88483 9.09829 7.88483V9.72306C10.1546 9.72306 11.1677 10.1427 11.9146 10.8896C12.6615 11.6365 13.0811 12.6496 13.0811 13.7059H14.9194Z" fill="#4777E1"/>
</svg>
