<svg xmlns="http://www.w3.org/2000/svg" width="16" height="19" viewBox="0 0 16 19" fill="none" class="injected-svg menu-icon" data-src="/src/assets/Profile.svg" xmlns:xlink="http://www.w3.org/1999/xlink" role="img">
<path fill-rule="evenodd" clip-rule="evenodd" d="M11.1289 5.74998C11.1289 6.57879 10.7997 7.37364 10.2136 7.95969C9.62756 8.54574 8.83271 8.87498 8.00391 8.87498C7.1751 8.87498 6.38025 8.54574 5.7942 7.95969C5.20815 7.37364 4.87891 6.57879 4.87891 5.74998C4.87891 4.92118 5.20815 4.12633 5.7942 3.54028C6.38025 2.95422 7.1751 2.62498 8.00391 2.62498C8.83271 2.62498 9.62756 2.95422 10.2136 3.54028C10.7997 4.12633 11.1289 4.92118 11.1289 5.74998ZM11.7714 9.03748C12.4025 8.31414 12.8121 7.4244 12.9512 6.47454C13.0902 5.52469 12.9529 4.55488 12.5556 3.68097C12.1583 2.80706 11.5179 2.06599 10.7107 1.5463C9.90357 1.0266 8.96389 0.750244 8.00391 0.750244C7.04393 0.750244 6.10424 1.0266 5.2971 1.5463C4.48996 2.06599 3.84948 2.80706 3.45219 3.68097C3.0549 4.55488 2.91758 5.52469 3.05664 6.47454C3.19571 7.4244 3.60527 8.31414 4.23641 9.03748C3.16721 9.31812 2.22107 9.94499 1.5458 10.8202C0.870526 11.6954 0.504151 12.7696 0.503906 13.875V15.75C0.503906 16.413 0.767298 17.0489 1.23614 17.5177C1.70498 17.9866 2.34087 18.25 3.00391 18.25H13.0039C13.6669 18.25 14.3028 17.9866 14.7717 17.5177C15.2405 17.0489 15.5039 16.413 15.5039 15.75V13.875C15.5037 12.7696 15.1373 11.6954 14.462 10.8202C13.7867 9.94499 12.8406 9.31812 11.7714 9.03748ZM8.00391 10.75H5.50391C4.6751 10.75 3.88025 11.0792 3.2942 11.6653C2.70815 12.2513 2.37891 13.0462 2.37891 13.875V15.75C2.37891 15.9157 2.44475 16.0747 2.56196 16.1919C2.67917 16.3091 2.83815 16.375 3.00391 16.375H13.0039C13.1697 16.375 13.3286 16.3091 13.4458 16.1919C13.5631 16.0747 13.6289 15.9157 13.6289 15.75V13.875C13.6289 13.0462 13.2997 12.2513 12.7136 11.6653C12.1276 11.0792 11.3327 10.75 10.5039 10.75H8.00391Z" fill="#4777E1"></path>
</svg>