<svg xmlns="http://www.w3.org/2000/svg" width="20" height="19" viewBox="0 0 20 19" fill="none" class="injected-svg menu-icon" data-src="/src/assets/Tips.svg" xmlns:xlink="http://www.w3.org/1999/xlink" role="img">
<path d="M17.3372 8.83333L16.8164 7.6875L15.6706 7.16667L16.8164 6.64583L17.3372 5.5L17.8581 6.64583L19.0039 7.16667L17.8581 7.6875L17.3372 8.83333ZM14.8372 5.5L14.0456 3.79167L12.3372 3L14.0456 2.20833L14.8372 0.5L15.6289 2.20833L17.3372 3L15.6289 3.79167L14.8372 5.5ZM6.50391 18.8333C6.04557 18.8333 5.65307 18.67 5.32641 18.3433C4.99974 18.0167 4.83669 17.6244 4.83724 17.1667H8.17057C8.17057 17.625 8.00724 18.0175 7.68057 18.3442C7.35391 18.6708 6.96169 18.8339 6.50391 18.8333ZM3.17057 16.3333V14.6667H9.83724V16.3333H3.17057ZM3.37891 13.8333C2.42057 13.2639 1.66002 12.5 1.09724 11.5417C0.534463 10.5833 0.253352 9.54167 0.253907 8.41667C0.253907 6.68056 0.861685 5.20472 2.07724 3.98917C3.2928 2.77361 4.76835 2.16611 6.50391 2.16667C8.24002 2.16667 9.71585 2.77444 10.9314 3.99C12.147 5.20556 12.7545 6.68111 12.7539 8.41667C12.7539 9.54167 12.4728 10.5833 11.9106 11.5417C11.3484 12.5 10.5878 13.2639 9.62891 13.8333H3.37891ZM3.87891 12.1667H9.12891C9.75391 11.7222 10.2367 11.1736 10.5772 10.5208C10.9178 9.86806 11.0878 9.16667 11.0872 8.41667C11.0872 7.13889 10.6428 6.05556 9.75391 5.16667C8.86502 4.27778 7.78169 3.83333 6.50391 3.83333C5.22613 3.83333 4.1428 4.27778 3.25391 5.16667C2.36502 6.05556 1.92057 7.13889 1.92057 8.41667C1.92057 9.16667 2.09057 9.86806 2.43057 10.5208C2.77057 11.1736 3.25335 11.7222 3.87891 12.1667Z" fill="#4777E1"></path>
</svg>