<svg width="20" height="15" viewBox="0 0 20 15" fill="none" xmlns="http://www.w3.org/2000/svg">
<path d="M11.0574 0.469056C11.3075 0.219095 11.6465 0.0786743 12.0001 0.0786743C12.3536 0.0786743 12.6927 0.219095 12.9427 0.469056L18.9427 6.46906C19.1927 6.71909 19.3331 7.05817 19.3331 7.41172C19.3331 7.76528 19.1927 8.10435 18.9427 8.35439L12.9427 14.3544C12.6913 14.5973 12.3545 14.7317 12.0049 14.7286C11.6553 14.7256 11.3209 14.5854 11.0737 14.3381C10.8264 14.0909 10.6862 13.7565 10.6832 13.4069C10.6801 13.0573 10.8145 12.7205 11.0574 12.4691L14.6667 8.74506H2.00008C1.64646 8.74506 1.30732 8.60458 1.05727 8.35453C0.807224 8.10448 0.666748 7.76535 0.666748 7.41172C0.666748 7.0581 0.807224 6.71896 1.05727 6.46891C1.30732 6.21887 1.64646 6.07839 2.00008 6.07839H14.6667L11.0574 2.35439C10.8075 2.10435 10.667 1.76528 10.667 1.41172C10.667 1.05817 10.8075 0.719093 11.0574 0.469056Z" fill="#D1D2D6"/>
</svg>
