<svg width="18" height="18" viewBox="0 0 18 18" fill="none" xmlns="http://www.w3.org/2000/svg">
<path d="M2.58724 0.166687C2.03471 0.166687 1.5048 0.38618 1.1141 0.776881C0.7234 1.16758 0.503906 1.69749 0.503906 2.25002V14.75C0.503906 15.3026 0.7234 15.8325 1.1141 16.2232C1.5048 16.6139 2.03471 16.8334 2.58724 16.8334H8.67891C8.32164 16.4614 8.01916 16.0406 7.78057 15.5834H2.58724C2.36623 15.5834 2.15426 15.4956 1.99798 15.3393C1.8417 15.183 1.75391 14.971 1.75391 14.75H7.43141C7.30067 14.3445 7.21843 13.9249 7.18641 13.5H1.75391V2.25002C1.75391 2.02901 1.8417 1.81704 1.99798 1.66076C2.15426 1.50448 2.36623 1.41669 2.58724 1.41669H12.1706C12.3916 1.41669 12.6035 1.50448 12.7598 1.66076C12.9161 1.81704 13.0039 2.02901 13.0039 2.25002V7.68252C13.4372 7.71585 13.8556 7.79919 14.2539 7.92752V2.25002C14.2539 1.69749 14.0344 1.16758 13.6437 0.776881C13.253 0.38618 12.7231 0.166687 12.1706 0.166687H2.58724ZM17.1706 13.0834C17.1706 11.8678 16.6877 10.702 15.8281 9.84245C14.9686 8.98291 13.8028 8.50002 12.5872 8.50002C11.3717 8.50002 10.2059 8.98291 9.34633 9.84245C8.48679 10.702 8.00391 11.8678 8.00391 13.0834C8.00391 14.2989 8.48679 15.4647 9.34633 16.3243C10.2059 17.1838 11.3717 17.6667 12.5872 17.6667C13.8028 17.6667 14.9686 17.1838 15.8281 16.3243C16.6877 15.4647 17.1706 14.2989 17.1706 13.0834ZM12.0989 11.0809L14.4372 12.6142C14.5097 12.6607 14.5691 12.7249 14.61 12.8007C14.6508 12.8765 14.6716 12.9614 14.6706 13.0475C14.6707 13.1342 14.6501 13.2196 14.6106 13.2967C14.5733 13.373 14.5163 13.438 14.4456 13.485L12.1064 15.0809C12.0657 15.1082 12.0214 15.1298 11.9747 15.145C11.8664 15.1796 11.7491 15.1728 11.6456 15.1259C11.5859 15.0979 11.5315 15.0598 11.4847 15.0134C11.4396 14.9642 11.403 14.9079 11.3764 14.8467C11.3504 14.7841 11.3371 14.717 11.3372 14.6492V11.5175C11.3368 11.4172 11.3655 11.319 11.4198 11.2347C11.474 11.1504 11.5516 11.0836 11.6431 11.0425C11.7157 11.0085 11.796 10.994 11.876 11.0006C11.9559 11.0072 12.0328 11.0346 12.0989 11.08V11.0809ZM3.00391 3.50002C3.00391 3.27901 3.0917 3.06705 3.24798 2.91076C3.40426 2.75448 3.61623 2.66669 3.83724 2.66669H10.5039C10.7249 2.66669 10.9369 2.75448 11.0932 2.91076C11.2494 3.06705 11.3372 3.27901 11.3372 3.50002V5.16669C11.3372 5.3877 11.2494 5.59966 11.0932 5.75594C10.9369 5.91222 10.7249 6.00002 10.5039 6.00002H3.83724C3.61623 6.00002 3.40426 5.91222 3.24798 5.75594C3.0917 5.59966 3.00391 5.3877 3.00391 5.16669V3.50002ZM4.25391 4.75002H10.0872V3.91669H4.25391V4.75002Z" fill="#D1D2D6"/>
</svg>
