<svg width="32" height="32" viewBox="0 0 32 32" fill="none" xmlns="http://www.w3.org/2000/svg">
<g clip-path="url(#clip0_1_1557)">
<mask id="mask0_1_1557" style="mask-type:luminance" maskUnits="userSpaceOnUse" x="0" y="2" width="32" height="32">
<path d="M0 2H32V34H0V2Z" fill="white"/>
</mask>
<g mask="url(#mask0_1_1557)">
<path d="M30.625 16.6875C30.625 25.1444 23.7694 32 15.3125 32C6.85563 32 0 25.1444 0 16.6875C0 8.23063 6.85563 1.375 15.3125 1.375C23.7694 1.375 30.625 8.23063 30.625 16.6875Z" fill="#B2CBFC" fill-opacity="0.4"/>
<path d="M17.4626 26.0285L20.6758 22.8152C21.1671 22.324 21.1671 21.5274 20.6758 21.0361C20.4006 20.7609 20.0135 20.6286 19.6274 20.6777L19.1508 20.7384C17.2821 20.9762 15.4086 20.3357 14.0766 19.0037C12.1808 17.1079 11.7481 14.1952 13.0109 11.8302L14.5601 8.92924C14.7834 8.51099 14.7069 7.99593 14.3716 7.66062C13.9511 7.24012 13.2693 7.24012 12.8488 7.66062L5.97175 14.5377C5.227 15.2824 4.76488 16.2236 4.57232 17.2621C4.26838 18.9012 2.84057 20.0731 1.174 20.1147C0.912441 20.1213 0.654754 20.1429 0.400879 20.1763C0.893254 22.2902 1.83925 24.3197 3.23932 26.1096L3.23938 26.1091H3.63657V26.5959H3.63644C3.83788 26.8328 4.04738 27.0651 4.26557 27.2922L4.26613 27.2921H4.70813V27.7341L4.70775 27.7345C4.93494 27.9527 5.16732 28.1623 5.40425 28.3637L5.40432 28.3637L5.89113 28.3637V28.7609L5.89088 28.7611C7.68069 30.1611 9.71019 31.107 11.8239 31.5994C11.8573 31.3456 11.8789 31.088 11.8855 30.8265C11.9273 29.1598 13.0993 27.7319 14.7386 27.4279C15.7769 27.2352 16.7179 26.7731 17.4626 26.0285Z" fill="#FF4155"/>
<path d="M8.37519 16.6876C8.37519 14.705 8.75194 12.8104 9.43782 11.0716L5.97169 14.5377C5.227 15.2824 4.76488 16.2236 4.57225 17.2621C4.26838 18.9012 2.8405 20.0731 1.174 20.1148C0.912379 20.1214 0.654691 20.143 0.400879 20.1763C0.893254 22.2902 1.83919 24.3197 3.23925 26.1096L3.23938 26.1092H3.6365V26.5959L3.63644 26.596C3.83782 26.8329 4.04732 27.0652 4.2655 27.2923L4.26613 27.2922H4.70807V27.7341L4.70775 27.7346C4.93494 27.9527 5.16732 28.1623 5.40419 28.3638L5.40432 28.3637H5.89107V28.7609L5.89082 28.7611C7.68069 30.1611 9.71013 31.1071 11.8239 31.5994C11.8573 31.3456 11.8789 31.0881 11.8854 30.8265C11.9143 29.6744 12.4835 28.6366 13.3736 28.0051C10.3024 25.2046 8.37519 21.1712 8.37519 16.6876Z" fill="#E80054"/>
<path d="M13.8531 22.1245L9.87561 18.147C9.50948 17.7809 8.91592 17.7809 8.5498 18.147L2.16211 24.5347C3.46348 26.7108 5.2893 28.5367 7.46542 29.838L13.8531 23.4503C14.2192 23.0842 14.2192 22.4906 13.8531 22.1245Z" fill="#E80054"/>
<path d="M8.45336 18.2434L2.16211 24.5347C3.46348 26.7108 5.2893 28.5366 7.46542 29.838L11.4333 25.8701C9.80592 23.7018 8.74042 21.0876 8.45336 18.2434Z" fill="#CC0053"/>
<path d="M28.4378 9.08685L22.9133 3.56242L23.5763 2.89948L29.1006 8.42392L28.4378 9.08685Z" fill="#543E5B"/>
<path d="M28.106 9.41831C27.923 9.23524 27.923 8.93843 28.106 8.75537L28.769 8.09243C28.952 7.90937 29.2489 7.90937 29.4319 8.09243C29.615 8.27549 29.615 8.57231 29.4319 8.75537L28.769 9.41831C28.5859 9.60137 28.2891 9.60137 28.106 9.41831Z" fill="#6C5475"/>
<path d="M22.5819 3.89389C22.7649 4.07695 23.0618 4.07695 23.2448 3.89389L23.9078 3.23095C24.0908 3.04789 24.0908 2.75108 23.9078 2.56802C23.7246 2.38495 23.4279 2.38495 23.2448 2.56802L22.5819 3.23095C22.3988 3.41402 22.3988 3.71083 22.5819 3.89389Z" fill="#6C5475"/>
<path d="M10.8699 23.3398L8.66016 21.1301L24.5705 5.21972L26.7802 7.42953L10.8699 23.3398Z" fill="#6C5475"/>
<path d="M18.8622 9.60247C19.0452 9.41941 19.342 9.41941 19.525 9.60247L22.3978 12.4752C22.5808 12.6582 22.5808 12.955 22.3978 13.1381C22.2147 13.3212 21.918 13.3212 21.7348 13.1381L18.8622 10.2653C18.6791 10.0823 18.6791 9.78553 18.8622 9.60247Z" fill="#D3DCFB"/>
<path d="M21.1087 7.35583C21.2919 7.17276 21.5886 7.17276 21.7717 7.35583L24.6444 10.2285C24.8274 10.4116 24.8274 10.7084 24.6444 10.8915C24.4614 11.0745 24.1645 11.0745 23.9815 10.8915L21.1087 8.01876C20.9257 7.8357 20.9257 7.53889 21.1087 7.35583Z" fill="#D3DCFB"/>
<path d="M14.3687 14.0957C14.5518 13.9126 14.8486 13.9126 15.0317 14.0957L17.9044 16.9684C18.0874 17.1514 18.0874 17.4483 17.9044 17.6313C17.7214 17.8144 17.4246 17.8144 17.2415 17.6313L14.3687 14.7586C14.1857 14.5756 14.1857 14.2788 14.3687 14.0957Z" fill="#D3DCFB"/>
<path d="M16.6156 11.849C16.7987 11.6659 17.0955 11.6659 17.2785 11.849L20.1512 14.7217C20.3343 14.9048 20.3343 15.2016 20.1512 15.3846C19.9682 15.5678 19.6714 15.5678 19.4883 15.3846L16.6156 12.5119C16.4325 12.3289 16.4325 12.0321 16.6156 11.849Z" fill="#D3DCFB"/>
<path d="M12.1222 16.3423C12.3052 16.1592 12.602 16.1592 12.7851 16.3423L15.6578 19.215C15.8408 19.398 15.8408 19.6948 15.6578 19.8779C15.4747 20.061 15.1779 20.061 14.9948 19.8779L12.1222 17.0052C11.9391 16.8222 11.9391 16.5253 12.1222 16.3423Z" fill="#D3DCFB"/>
<path d="M7.33456 21.1301L8.43944 20.0252C8.62244 19.8422 8.91925 19.8422 9.10231 20.0252L11.9751 22.898C12.1581 23.0811 12.1581 23.3778 11.9751 23.5609L10.8702 24.6657C10.6871 24.8488 10.3904 24.8488 10.2072 24.6657L7.33456 21.793C7.1515 21.6099 7.1515 21.3132 7.33456 21.1301Z" fill="#543E5B"/>
<path d="M8.71223 19.892C8.61248 19.9045 8.51598 19.9486 8.43942 20.0252L7.33461 21.1301C7.15148 21.3131 7.15148 21.6099 7.33461 21.793L10.2073 24.6656C10.337 24.7953 10.5235 24.8327 10.6865 24.7787C9.76405 23.2996 9.08698 21.6518 8.71223 19.892Z" fill="#45304C"/>
<path d="M4.24057 24.2236L5.34544 23.1188C5.52844 22.9358 5.82526 22.9358 6.00832 23.1188L8.88107 25.9915C9.06413 26.1746 9.06413 26.4714 8.88107 26.6545L7.77619 27.7593C7.59313 27.9424 7.29638 27.9424 7.11326 27.7593L4.24057 24.8866C4.05751 24.7035 4.05751 24.4067 4.24057 24.2236Z" fill="#45304C"/>
<path d="M3.63663 26.5959L24.4603 5.7722L24.0183 5.33026L3.2395 26.1091C3.36806 26.2734 3.50044 26.4357 3.63663 26.5959Z" fill="#E9EFFF"/>
<path d="M25.1233 6.43507L4.26636 27.292C4.33842 27.367 4.41067 27.4419 4.48454 27.5158C4.55842 27.5897 4.63336 27.6619 4.70829 27.7339L25.5652 6.87701L25.1233 6.43507Z" fill="#E9EFFF"/>
<path d="M5.89087 28.7609L26.6697 7.98205L26.2277 7.54005L5.40405 28.3637C5.56424 28.4999 5.72655 28.6323 5.89087 28.7609Z" fill="#E9EFFF"/>
<path d="M30.8684 6.65613L25.344 1.13169L26.0069 0.468753L31.5314 5.99319L30.8684 6.65613Z" fill="#543E5B"/>
<path d="M26.1173 8.53444L23.4655 5.88275C23.2215 5.63862 23.2215 5.24287 23.4655 4.99881L27.4431 1.02125C27.6872 0.777124 28.083 0.777124 28.327 1.02125L30.9788 3.67294C31.2228 3.91706 31.2228 4.31281 30.9788 4.55687L27.0012 8.53444C26.7571 8.77856 26.3613 8.77856 26.1173 8.53444Z" fill="#FF4155"/>
<path d="M24.7914 6.32462L28.769 2.347C29.0131 2.10293 29.4088 2.10293 29.6529 2.347L28.327 1.02118C28.083 0.777058 27.6872 0.777058 27.4431 1.02118L23.4655 4.99874C23.2215 5.24281 23.2215 5.63856 23.4655 5.88268L24.7914 7.20856C24.5473 6.96443 24.5473 6.56868 24.7914 6.32462Z" fill="#E80054"/>
<path d="M30.537 6.98758C30.3539 6.80452 30.3539 6.50771 30.537 6.32464L31.1999 5.66171C31.3829 5.47864 31.6798 5.47864 31.8629 5.66171C32.0459 5.84477 32.0459 6.14158 31.8629 6.32464L31.1999 6.98758C31.0169 7.17064 30.7201 7.17064 30.537 6.98758Z" fill="#6C5475"/>
<path d="M28.0698 3.19419C27.8866 3.37725 27.5899 3.37725 27.4068 3.19419C27.2238 3.01112 27.2238 2.71431 27.4068 2.53125C27.5899 2.34819 27.8866 2.34819 28.0698 2.53125C28.2528 2.71431 28.2528 3.01112 28.0698 3.19419Z" fill="#543E5B"/>
<path d="M29.4692 4.59366C29.2861 4.77672 28.9892 4.77672 28.8062 4.59366C28.6232 4.4106 28.6232 4.11379 28.8062 3.93072C28.9892 3.74766 29.2861 3.74766 29.4692 3.93072C29.6522 4.11379 29.6522 4.4106 29.4692 4.59366Z" fill="#6C5475"/>
<path d="M25.6757 5.66178C25.4926 5.84484 25.1958 5.84484 25.0128 5.66178C24.8297 5.47871 24.8297 5.1819 25.0128 4.99884C25.1958 4.81578 25.4926 4.81578 25.6757 4.99884C25.8588 5.1819 25.8588 5.47871 25.6757 5.66178Z" fill="#543E5B"/>
<path d="M27.0014 6.98758C26.8183 7.17064 26.5215 7.17064 26.3385 6.98758C26.1554 6.80452 26.1554 6.50771 26.3385 6.32464C26.5215 6.14158 26.8183 6.14158 27.0014 6.32464C27.1845 6.50771 27.1845 6.80452 27.0014 6.98758Z" fill="#6C5475"/>
<path d="M17.2073 24.1529C16.8413 24.519 16.2477 24.519 15.8815 24.1529C15.5154 23.7868 15.5154 23.1932 15.8815 22.8271C16.2477 22.461 16.8413 22.461 17.2073 22.8271C17.5735 23.1932 17.5735 23.7868 17.2073 24.1529Z" fill="#6C5475"/>
<path d="M16.5444 23.49C16.7897 23.2448 17.1368 23.1647 17.4493 23.248C17.4083 23.0939 17.3282 22.948 17.2073 22.8271C16.8412 22.461 16.2476 22.461 15.8815 22.8271C15.5154 23.1932 15.5154 23.7868 15.8815 24.1529C16.0024 24.2738 16.1482 24.354 16.3023 24.395C16.2191 24.0824 16.2992 23.7353 16.5444 23.49Z" fill="#543E5B"/>
</g>
</g>
<defs>
<clipPath id="clip0_1_1557">
<rect width="32" height="32" fill="white"/>
</clipPath>
</defs>
</svg>
