<svg width="21" height="21" viewBox="0 0 21 21" fill="none" xmlns="http://www.w3.org/2000/svg">
<g clip-path="url(#clip0_210_94)">
<path d="M18.9883 1.00784C18.3893 0.539087 17.6732 0.395858 16.8398 0.578149L8.51953 3.00002C7.97266 3.10419 7.52995 3.38414 7.19141 3.83987C6.85286 4.2956 6.68359 4.82294 6.68359 5.4219V14.6016C6.00651 14.0808 5.17318 13.8203 4.18359 13.8203C3.01172 13.8203 2.02214 14.1524 1.21484 14.8164C0.407552 15.4805 0.00390625 16.2683 0.00390625 17.1797C0.00390625 18.0912 0.407552 18.8724 1.21484 19.5235C2.02214 20.1745 3.01172 20.5 4.18359 20.5C5.32943 20.5 6.30599 20.1485 7.11328 19.4453C7.92057 18.7422 8.32422 17.9219 8.32422 16.9844V16.9453C8.29818 16.9193 8.27214 16.711 8.24609 16.3203H8.32422V8.82034C8.32422 8.4818 8.51953 8.20836 8.91016 8.00002L17.2695 5.57815C17.4779 5.50002 17.7253 5.55211 18.0117 5.7344C18.2201 5.91669 18.3242 6.13805 18.3242 6.39846V11.9844C17.569 11.5417 16.7357 11.3203 15.8242 11.3203C14.6784 11.3203 13.7018 11.6524 12.8945 12.3164C12.0872 12.9805 11.6836 13.7683 11.6836 14.6797C11.6836 15.5912 12.0872 16.3724 12.8945 17.0235C13.7018 17.6745 14.6784 18 15.8242 18C16.9961 18 17.9857 17.6745 18.793 17.0235C19.6003 16.3724 20.0039 15.5912 20.0039 14.6797C20.0039 14.4714 19.9518 14.1849 19.8477 13.8203H20.0039V3.00002C20.0039 2.19273 19.6654 1.52867 18.9883 1.00784ZM4.18359 18.8203C3.50651 18.8203 2.92057 18.6576 2.42578 18.3321C1.93099 18.0065 1.68359 17.6224 1.68359 17.1797C1.68359 16.711 1.93099 16.3138 2.42578 15.9883C2.92057 15.6628 3.50651 15.5 4.18359 15.5C4.86068 15.5 5.44661 15.6628 5.94141 15.9883C6.4362 16.3138 6.68359 16.711 6.68359 17.1797C6.68359 17.6224 6.4362 18.0065 5.94141 18.3321C5.44661 18.6576 4.86068 18.8203 4.18359 18.8203ZM15.8242 16.3203C15.1471 16.3203 14.5612 16.1576 14.0664 15.8321C13.5716 15.5065 13.3242 15.1224 13.3242 14.6797C13.3242 14.211 13.5716 13.8138 14.0664 13.4883C14.5612 13.1628 15.1471 13 15.8242 13C16.5013 13 17.0872 13.1628 17.582 13.4883C18.0768 13.8138 18.3242 14.211 18.3242 14.6797C18.3242 15.1224 18.0768 15.5065 17.582 15.8321C17.0872 16.1576 16.5013 16.3203 15.8242 16.3203ZM16.8398 4.09377L8.51953 6.51565C8.44141 6.51565 8.3763 6.54169 8.32422 6.59377V5.4219C8.32422 5.05732 8.51953 4.78388 8.91016 4.60159L17.2695 2.17971C17.6602 2.17971 17.9076 2.2318 18.0117 2.33596C18.2201 2.46617 18.3242 2.68752 18.3242 3.00002V4.09377C17.8555 3.88544 17.3607 3.88544 16.8398 4.09377Z" fill="#D1D2D6"/>
</g>
<defs>
<clipPath id="clip0_210_94">
<rect width="20" height="20" fill="white" transform="translate(0.00390625 0.5)"/>
</clipPath>
</defs>
</svg>
