<svg width="21" height="21" viewBox="0 0 21 21" fill="none" xmlns="http://www.w3.org/2000/svg">
<g clip-path="url(#clip0_1_1782)">
<path d="M1.67065 10.5C1.67065 6.57169 1.67065 4.60752 2.89065 3.38669C4.11232 2.16669 6.07565 2.16669 10.004 2.16669C13.9323 2.16669 15.8965 2.16669 17.1165 3.38669C18.3373 4.60835 18.3373 6.57169 18.3373 10.5C18.3373 14.4284 18.3373 16.3925 17.1165 17.6125C15.8973 18.8334 13.9323 18.8334 10.004 18.8334C6.07565 18.8334 4.11149 18.8334 2.89065 17.6125C1.67065 16.3934 1.67065 14.4284 1.67065 10.5Z" stroke="#D1D2D6" stroke-width="1.5"/>
<path d="M9.37891 15.5C9.37891 15.6658 9.44475 15.8248 9.56196 15.942C9.67918 16.0592 9.83815 16.125 10.0039 16.125C10.1697 16.125 10.3286 16.0592 10.4458 15.942C10.5631 15.8248 10.6289 15.6658 10.6289 15.5H9.37891ZM15.0039 7.16671L15.4456 7.60838C15.5626 7.49119 15.6284 7.33234 15.6284 7.16671C15.6284 7.00109 15.5626 6.84223 15.4456 6.72505L15.0039 7.16671ZM14.1956 5.47505C14.1384 5.41364 14.0694 5.36439 13.9927 5.33023C13.916 5.29607 13.8333 5.2777 13.7493 5.27622C13.6654 5.27474 13.5821 5.29018 13.5042 5.32161C13.4264 5.35305 13.3557 5.39983 13.2964 5.45918C13.237 5.51853 13.1902 5.58922 13.1588 5.66705C13.1274 5.74487 13.1119 5.82823 13.1134 5.91215C13.1149 5.99607 13.1333 6.07883 13.1674 6.15549C13.2016 6.23216 13.2508 6.30116 13.3122 6.35838L14.1956 5.47505ZM13.3122 7.97505C13.2508 8.03227 13.2016 8.10127 13.1674 8.17793C13.1333 8.2546 13.1149 8.33736 13.1134 8.42128C13.1119 8.5052 13.1274 8.58855 13.1588 8.66638C13.1902 8.7442 13.237 8.8149 13.2964 8.87424C13.3557 8.93359 13.4264 8.98038 13.5042 9.01182C13.5821 9.04325 13.6654 9.05869 13.7493 9.05721C13.8333 9.05573 13.916 9.03736 13.9927 9.0032C14.0694 8.96904 14.1384 8.91979 14.1956 8.85838L13.3122 7.97505ZM10.6289 15.5V10.5H9.37891V15.5H10.6289ZM13.3372 7.79171H15.0039V6.54171H13.3372V7.79171ZM15.4456 6.72505L14.1956 5.47505L13.3122 6.35838L14.5622 7.60838L15.4456 6.72505ZM14.5622 6.72505L13.3122 7.97505L14.1956 8.85838L15.4456 7.60838L14.5622 6.72505ZM10.6289 10.5C10.6289 9.78175 10.9142 9.09288 11.4222 8.58497C11.9301 8.07706 12.6189 7.79171 13.3372 7.79171V6.54171C12.2874 6.54171 11.2806 6.95875 10.5383 7.70108C9.79594 8.44341 9.37891 9.45023 9.37891 10.5H10.6289Z" fill="#D1D2D6"/>
<path d="M9.37909 15.5C9.37909 15.6658 9.44494 15.8247 9.56215 15.9419C9.67936 16.0591 9.83833 16.125 10.0041 16.125C10.1698 16.125 10.3288 16.0591 10.446 15.9419C10.5632 15.8247 10.6291 15.6658 10.6291 15.5H9.37909ZM5.00409 7.16666L4.56242 6.72499C4.44538 6.84218 4.37964 7.00104 4.37964 7.16666C4.37964 7.33229 4.44538 7.49114 4.56242 7.60833L5.00409 7.16666ZM6.69576 6.35833C6.80616 6.23985 6.86626 6.08314 6.8634 5.92123C6.86054 5.75931 6.79495 5.60482 6.68044 5.49031C6.56593 5.3758 6.41144 5.31021 6.24952 5.30735C6.08761 5.30449 5.9309 5.36459 5.81242 5.47499L6.69576 6.35833ZM5.81242 8.85833C5.86964 8.91973 5.93864 8.96899 6.01531 9.00315C6.09197 9.03731 6.17473 9.05567 6.25865 9.05715C6.34257 9.05863 6.42593 9.0432 6.50375 9.01176C6.58158 8.98033 6.65227 8.93354 6.71162 8.87419C6.77097 8.81484 6.81776 8.74415 6.84919 8.66633C6.88063 8.5885 6.89606 8.50514 6.89458 8.42123C6.8931 8.33731 6.87473 8.25455 6.84057 8.17788C6.80641 8.10121 6.75716 8.03221 6.69576 7.97499L5.81242 8.85833ZM10.6291 15.5V10.5H9.37909V15.5H10.6291ZM6.67076 6.54166H5.00409V7.79166H6.67076V6.54166ZM5.44576 7.60833L6.69576 6.35833L5.81242 5.47499L4.56242 6.72499L5.44576 7.60833ZM4.56242 7.60833L5.81242 8.85833L6.69576 7.97499L5.44576 6.72499L4.56242 7.60833ZM10.6291 10.5C10.6291 9.45018 10.2121 8.44336 9.46972 7.70103C8.72739 6.9587 7.72057 6.54166 6.67076 6.54166V7.79166C7.38905 7.79166 8.07792 8.077 8.58584 8.58491C9.09375 9.09282 9.37909 9.7817 9.37909 10.5H10.6291Z" fill="#D1D2D6"/>
</g>
<defs>
<clipPath id="clip0_1_1782">
<rect width="20" height="20" fill="white" transform="translate(0.00390625 0.5)"/>
</clipPath>
</defs>
</svg>
