<svg xmlns="http://www.w3.org/2000/svg" width="18" height="18" viewBox="0 0 18 18" fill="none">
<path d="M17.3366 6.10002V2.31669C17.3366 1.14169 16.8033 0.666687 15.4783 0.666687H12.1116C10.7866 0.666687 10.2533 1.14169 10.2533 2.31669V6.09169C10.2533 7.27502 10.7866 7.74169 12.1116 7.74169H15.4783C16.8033 7.75002 17.3366 7.27502 17.3366 6.10002ZM17.3366 15.475V12.1084C17.3366 10.7834 16.8033 10.25 15.4783 10.25H12.1116C10.7866 10.25 10.2533 10.7834 10.2533 12.1084V15.475C10.2533 16.8 10.7866 17.3334 12.1116 17.3334H15.4783C16.8033 17.3334 17.3366 16.8 17.3366 15.475ZM7.75325 6.10002V2.31669C7.75325 1.14169 7.21992 0.666687 5.89492 0.666687H2.52826C1.20326 0.666687 0.669922 1.14169 0.669922 2.31669V6.09169C0.669922 7.27502 1.20326 7.74169 2.52826 7.74169H5.89492C7.21992 7.75002 7.75325 7.27502 7.75325 6.10002ZM7.75325 15.475V12.1084C7.75325 10.7834 7.21992 10.25 5.89492 10.25H2.52826C1.20326 10.25 0.669922 10.7834 0.669922 12.1084V15.475C0.669922 16.8 1.20326 17.3334 2.52826 17.3334H5.89492C7.21992 17.3334 7.75325 16.8 7.75325 15.475Z" fill="#D1D2D6"/>
</svg>